solid reference_cube 
facet normal -4.000000 -4.000000 -4.000000 
	 outer loop
			vertex -1.000000e+00 -1.000000e+00 1.000000e+00
			vertex -1.000000e+00 1.000000e+00 -1.000000e+00
			vertex 1.000000e+00 -1.000000e+00 -1.000000e+00
	endloop
endfacet
facet normal 4.000000 -4.000000 4.000000 
	 outer loop
			vertex 1.000000e+00 1.000000e+00 1.000000e+00
			vertex -1.000000e+00 -1.000000e+00 1.000000e+00
			vertex 1.000000e+00 -1.000000e+00 -1.000000e+00
	endloop
endfacet
facet normal -4.000000 -4.000000 4.000000 
	 outer loop
			vertex 1.000000e+00 1.000000e+00 1.000000e+00
			vertex -1.000000e+00 1.000000e+00 -1.000000e+00
			vertex 1.000000e+00 -1.000000e+00 -1.000000e+00
	endloop
endfacet
facet normal 4.000000 -4.000000 -4.000000 
	 outer loop
			vertex 1.000000e+00 1.000000e+00 1.000000e+00
			vertex -1.000000e+00 -1.000000e+00 1.000000e+00
			vertex -1.000000e+00 1.000000e+00 -1.000000e+00
	endloop
endfacet
endsolid reference_cube